<svg width="111" height="110" viewBox="0 0 111 110" fill="none" xmlns="http://www.w3.org/2000/svg">
<g filter="url(#filter0_d_134_183)">
<circle cx="55" cy="51" r="24" fill="white"/>
<path d="M70.0135 36.9512C70.0277 36.9512 70.0465 36.9512 70.0654 36.9512C70.558 36.9512 71.0153 37.1023 71.3901 37.3626L71.3831 37.3579C71.6565 37.5926 71.8404 37.9226 71.8852 38.2945V38.3015C71.9323 38.585 71.9582 38.9104 71.9582 39.2427C71.9582 39.3938 71.9535 39.5425 71.9417 39.6912V39.6703C71.4114 45.176 69.1107 58.5276 67.9415 64.6909C67.4465 67.3008 66.4729 68.1746 65.53 68.2583C63.4816 68.4466 61.9258 66.9243 59.941 65.6414C56.8342 63.6311 55.0781 62.3808 52.0631 60.4216C48.5768 58.1604 50.8374 56.9124 52.8222 54.8811C53.3431 54.3466 62.3737 46.2473 62.5505 45.5129C62.5599 45.4688 62.5646 45.42 62.5646 45.3689C62.5646 45.1876 62.4963 45.0226 62.3855 44.8971C62.2629 44.8181 62.1097 44.7739 61.9494 44.7739C61.8433 44.7739 61.742 44.7948 61.6477 44.8297L61.6524 44.8274C61.3412 44.8971 56.3785 48.1306 46.7641 54.5279C45.7151 55.3436 44.3903 55.8596 42.9477 55.92H42.9336C40.8898 55.676 39.0347 55.2274 37.2738 54.5883L37.4483 54.6441C35.2372 53.9329 33.481 53.5588 33.6319 52.3549C33.7121 51.729 34.5873 51.0883 36.2579 50.4329C46.548 46.0126 53.4099 43.099 56.8436 41.6922C60.6317 39.7098 65.0232 38.0784 69.6411 37.0209L70.0112 36.9489L70.0135 36.9512ZM55.4175 16C35.8477 16.0465 20 31.6989 20 51C20 70.329 35.8925 86 55.5 86C75.1075 86 91 70.3313 91 51C91 31.6989 75.1523 16.0465 55.5872 16H55.5825C55.5275 16 55.4725 16 55.4175 16Z" fill="#F58AF7"/>
</g>
<defs>
<filter id="filter0_d_134_183" x="0" y="0" width="111" height="110" filterUnits="userSpaceOnUse" color-interpolation-filters="sRGB">
<feFlood flood-opacity="0" result="BackgroundImageFix"/>
<feColorMatrix in="SourceAlpha" type="matrix" values="0 0 0 0 0 0 0 0 0 0 0 0 0 0 0 0 0 0 127 0" result="hardAlpha"/>
<feOffset dy="4"/>
<feGaussianBlur stdDeviation="10"/>
<feComposite in2="hardAlpha" operator="out"/>
<feColorMatrix type="matrix" values="0 0 0 0 0.500838 0 0 0 0 0.0545167 0 0 0 0 0.456206 0 0 0 1 0"/>
<feBlend mode="normal" in2="BackgroundImageFix" result="effect1_dropShadow_134_183"/>
<feBlend mode="normal" in="SourceGraphic" in2="effect1_dropShadow_134_183" result="shape"/>
</filter>
</defs>
</svg>
