<svg width="111" height="110" viewBox="0 0 111 110" fill="none" xmlns="http://www.w3.org/2000/svg">
<g filter="url(#filter0_d_134_181)">
<ellipse cx="55.5" cy="51" rx="30.5" ry="30" fill="white"/>
<path d="M55.5 16C35.8918 16 20 31.668 20 51C20 70.332 35.8918 86 55.5 86C75.1082 86 91 70.332 91 51C91 31.668 75.1082 16 55.5 16ZM69.6723 45.5586C69.6862 45.8594 69.6862 46.1738 69.6862 46.4883C69.6862 55.9902 62.3504 66.9551 48.927 66.9551C44.8084 66.9551 40.9672 65.7656 37.75 63.7285C38.3185 63.7969 38.901 63.8242 39.4973 63.8242C42.9086 63.8242 46.0565 62.6757 48.5526 60.748C45.3631 60.6933 42.659 58.6152 41.7437 55.7578C42.1875 55.8398 42.6451 55.8808 43.1166 55.8808C43.7822 55.8808 44.434 55.7989 45.0442 55.6211C41.7021 54.9648 39.1922 52.0527 39.1922 48.5664V48.4844C40.1768 49.0176 41.3 49.3457 42.4925 49.3868C40.5373 48.1016 39.2477 45.8867 39.2477 43.3984C39.2477 42.0859 39.6082 40.8418 40.2322 39.7754C43.8377 44.1367 49.2043 46.9942 55.2643 47.2949C55.1395 46.7754 55.0701 46.2285 55.0701 45.6543C55.0701 41.6895 58.3427 38.4629 62.3643 38.4629C64.4582 38.4629 66.358 39.3379 67.6893 40.7324C69.3533 40.4043 70.9065 39.8165 72.3209 38.9824C71.78 40.6641 70.6153 42.0723 69.1176 42.9609C70.5875 42.7832 72.0019 42.4004 73.3055 41.8262C72.3347 43.2754 71.1006 44.5332 69.6723 45.5586Z" fill="#F58AF7"/>
</g>
<defs>
<filter id="filter0_d_134_181" x="0" y="0" width="111" height="110" filterUnits="userSpaceOnUse" color-interpolation-filters="sRGB">
<feFlood flood-opacity="0" result="BackgroundImageFix"/>
<feColorMatrix in="SourceAlpha" type="matrix" values="0 0 0 0 0 0 0 0 0 0 0 0 0 0 0 0 0 0 127 0" result="hardAlpha"/>
<feOffset dy="4"/>
<feGaussianBlur stdDeviation="10"/>
<feComposite in2="hardAlpha" operator="out"/>
<feColorMatrix type="matrix" values="0 0 0 0 0.500838 0 0 0 0 0.0545167 0 0 0 0 0.456206 0 0 0 1 0"/>
<feBlend mode="normal" in2="BackgroundImageFix" result="effect1_dropShadow_134_181"/>
<feBlend mode="normal" in="SourceGraphic" in2="effect1_dropShadow_134_181" result="shape"/>
</filter>
</defs>
</svg>
